<svg xmlns="http://www.w3.org/2000/svg" width="25.311" height="22.499" viewBox="0 0 25.311 22.499">
  <path id="Icon_awesome-shopping-cart" data-name="Icon awesome-shopping-cart" d="M23.207,13.241,25.285,4.1a1.055,1.055,0,0,0-1.028-1.288H7L6.593.843A1.055,1.055,0,0,0,5.56,0H1.055A1.055,1.055,0,0,0,0,1.055v.7A1.055,1.055,0,0,0,1.055,2.812H4.126L7.212,17.9a2.461,2.461,0,1,0,2.946.376h9.213a2.46,2.46,0,1,0,2.795-.457l.242-1.067a1.055,1.055,0,0,0-1.028-1.288H9.585L9.3,14.062H22.179A1.055,1.055,0,0,0,23.207,13.241Z" fill="#3e3e71"/>
</svg>
