<svg xmlns="http://www.w3.org/2000/svg" width="22.862" height="19.724" viewBox="0 0 22.862 19.724">
  <path id="Icon_material-shopping-basket" data-name="Icon material-shopping-basket" d="M18.345,10.283,13.793,3.466a1.032,1.032,0,0,0-.863-.436,1.016,1.016,0,0,0-.863.447L7.517,10.283H2.539A1.042,1.042,0,0,0,1.5,11.323a.875.875,0,0,0,.042.281l2.64,9.633a2.067,2.067,0,0,0,2,1.517H19.686a2.088,2.088,0,0,0,2.006-1.517l2.64-9.633.031-.281a1.042,1.042,0,0,0-1.039-1.039Zm-8.532,0,3.118-4.572,3.118,4.572ZM12.931,18.6a2.078,2.078,0,1,1,2.078-2.078A2.084,2.084,0,0,1,12.931,18.6Z" transform="translate(-1.5 -3.03)" fill="#5e5eaa"/>
</svg>
