<svg xmlns="http://www.w3.org/2000/svg" width="18" height="17" viewBox="0 0 18 17">
  <g id="Layer_2" data-name="Layer 2" transform="translate(-0.771 0.03)">
    <g id="pin" transform="translate(0.386 -0.03)">
      <rect id="Rectangle_17" data-name="Rectangle 17" width="18" height="17" transform="translate(0.385)" fill="#5e5eaa" opacity="0"/>
      <circle id="Ellipse_1" data-name="Ellipse 1" cx="1.392" cy="1.392" r="1.392" transform="translate(7.618 5.655)" fill="#5e5eaa"/>
      <path id="Path_11" data-name="Path 11" d="M9.7,2A5.64,5.64,0,0,0,4,7.518c0,3.817,5.025,8.067,5.239,8.248a.725.725,0,0,0,.927,0c.249-.181,5.239-4.431,5.239-8.248A5.64,5.64,0,0,0,9.7,2Zm0,7.663A2.439,2.439,0,1,1,12.2,7.225,2.467,2.467,0,0,1,9.7,9.663Z" transform="translate(-0.731 -0.109)" fill="#5e5eaa"/>
    </g>
  </g>
</svg>
