<svg xmlns="http://www.w3.org/2000/svg" width="12" height="12" viewBox="0 0 12 12">
  <g id="Layer_2" data-name="Layer 2" transform="translate(-0.215 -0.09)">
    <g id="phone" transform="translate(0.211 0.09)">
      <rect id="Rectangle_27" data-name="Rectangle 27" width="12" height="12" transform="translate(0.003)" fill="#5e5eaa" opacity="0"/>
      <path id="Path_14" data-name="Path 14" d="M4.372,12.224a7.883,7.883,0,0,0,7.873-7.873A2.352,2.352,0,0,0,9.893,2a2.014,2.014,0,0,0-.394.036,1.937,1.937,0,0,0-.368.092.511.511,0,0,0-.332.383L8.1,5.578a.511.511,0,0,0,.133.47c.066.072.072.077.7.4a5.066,5.066,0,0,1-2.49,2.5c-.332-.634-.337-.639-.409-.705a.511.511,0,0,0-.47-.133l-3.067.7a.511.511,0,0,0-.368.332,2.219,2.219,0,0,0-.1.373A2.438,2.438,0,0,0,2,9.908,2.352,2.352,0,0,0,4.372,12.224Z" transform="translate(-1.179 -1.062)" fill="#5e5eaa"/>
    </g>
  </g>
</svg>
