<svg xmlns="http://www.w3.org/2000/svg" width="21.885" height="22.499" viewBox="0 0 21.885 22.499">
  <path id="Icon_material-settings" data-name="Icon material-settings" d="M22.709,15.352a8.767,8.767,0,0,0,.079-1.1,8.767,8.767,0,0,0-.079-1.1l2.374-1.856a.568.568,0,0,0,.135-.72l-2.25-3.892a.565.565,0,0,0-.686-.247l-2.8,1.125a8.219,8.219,0,0,0-1.9-1.1l-.427-2.981A.549.549,0,0,0,16.6,3H12.1a.549.549,0,0,0-.551.472l-.427,2.981a8.643,8.643,0,0,0-1.9,1.1L6.42,6.431a.549.549,0,0,0-.686.247l-2.25,3.892a.555.555,0,0,0,.135.72l2.374,1.856a8.922,8.922,0,0,0-.079,1.1,8.922,8.922,0,0,0,.079,1.1L3.619,17.208a.568.568,0,0,0-.135.72l2.25,3.892a.565.565,0,0,0,.686.247l2.8-1.125a8.219,8.219,0,0,0,1.9,1.1l.427,2.981a.549.549,0,0,0,.551.472h4.5a.549.549,0,0,0,.551-.472l.427-2.981a8.643,8.643,0,0,0,1.9-1.1l2.8,1.125a.549.549,0,0,0,.686-.247l2.25-3.892a.568.568,0,0,0-.135-.72l-2.374-1.856Zm-8.358,2.835a3.937,3.937,0,1,1,3.937-3.937A3.942,3.942,0,0,1,14.351,18.187Z" transform="translate(-3.406 -3)" fill="#3e3e71"/>
</svg>
